<?xml version="1.0" standalone="no"?><!DOCTYPE svg PUBLIC "-//W3C//DTD SVG 1.1//EN" "http://www.w3.org/Graphics/SVG/1.1/DTD/svg11.dtd"><svg class="icon" width="200px" height="200.00px" viewBox="0 0 1024 1024" version="1.1" xmlns="http://www.w3.org/2000/svg"><path d="M833.40735 762.006606c65.281369 60.585846 105.14932 139.513829 105.149319 226.217023 0 12.062775-0.78392 23.981564-2.279768 35.724371h-86.263238c1.903807-11.71881 3.223673-23.581605 3.223673-35.716372 0-71.856701-34.876458-136.906094-91.342723-185.709137C687.942125 837.246964 602.790774 857.260931 511.96 857.260931c-90.742783 0-175.822141-19.957973-249.734634-54.634451-56.50626 48.787045-91.542702 113.732448-91.542701 185.605148 0 12.134767 1.319866 23.997563 3.223672 35.716372H87.643099a283.523202 283.523202 0 0 1-2.279768-35.716372c0-86.695194 39.787959-165.687171 105.005334-226.305014C74.356449 683.342596 0.035998 563.330786 0.035998 428.648466 0.035998 191.952508 229.236717 0.059999 511.96 0.059999s511.924002 191.88451 511.924002 428.596466c0 134.722316-74.384445 254.774122-190.476652 333.350141zM511.96 294.958046c-235.608069 0-426.596669-80.607812-426.596669 122.723534 0 203.323348 190.988601 368.146606 426.596669 368.146606 235.608069 0 426.596669-164.823258 426.596669-368.146606 0-203.331347-190.988601-122.723535-426.596669-122.723534z m199.083778 205.131164c-31.412809 0-56.882222-21.317835-56.882222-47.619163 0-26.301328 25.469413-47.627162 56.874223-47.627163 31.420808 0 56.882222 21.325834 56.882223 47.627163s-25.461414 47.619163-56.874224 47.619163z m-28.44511 130.962698c0 32.876661-76.392241 59.529953-170.638668 59.529953-94.238428 0-170.638668-26.653293-170.638668-59.529953 0-8.479139 5.247467-16.510323 14.398538-23.805582 26.357323 21.005866 86.311233 35.716372 156.24013 35.716372 69.936896 0 129.882807-14.718505 156.232131-35.716372 9.15907 7.295259 14.406537 15.326443 14.406537 23.805582z m-369.722446-130.962698c-31.412809 0-56.874223-21.317835-56.874224-47.619163 0-26.301328 25.461414-47.627162 56.874224-47.627163 31.412809 0 56.882222 21.325834 56.882222 47.627163s-25.469413 47.619163-56.874223 47.619163z"  /></svg>